<?xml version="1.0" encoding="UTF-8" standalone="no"?>
<!-- Generator: Fusion 360, Shaper Origin Export Add-In, Version 1.8.0  -->

<svg
   shaper:fusionaddin="version:1.8.0"
   width="12.658071cm"
   height="3.3012956cm"
   version="1.1"
   x="0cm"
   y="0cm"
   viewBox="0 0 12.658071 3.3012956"
   enable-background="new 0 0 12.658071 3.3012956"
   xml:space="preserve"
   id="svg49"
   sodipodi:docname="Retro People Mover (Full Color).svg"
   inkscape:version="1.4.2 (f4327f4, 2025-05-13)"
   inkscape:export-filename="Retro People Mover (Outline).jpg"
   inkscape:export-xdpi="600"
   inkscape:export-ydpi="600"
   xmlns:inkscape="http://www.inkscape.org/namespaces/inkscape"
   xmlns:sodipodi="http://sodipodi.sourceforge.net/DTD/sodipodi-0.dtd"
   xmlns="http://www.w3.org/2000/svg"
   xmlns:svg="http://www.w3.org/2000/svg"
   xmlns:shaper="http://www.shapertools.com/namespaces/shaper"><defs
     id="defs49" /><sodipodi:namedview
     id="namedview49"
     pagecolor="#ffffff"
     bordercolor="#000000"
     borderopacity="0.25"
     inkscape:showpageshadow="2"
     inkscape:pageopacity="0.0"
     inkscape:pagecheckerboard="0"
     inkscape:deskcolor="#d1d1d1"
     inkscape:document-units="cm"
     inkscape:zoom="3.4447061"
     inkscape:cx="255.60961"
     inkscape:cy="28.014001"
     inkscape:window-width="2560"
     inkscape:window-height="1369"
     inkscape:window-x="3432"
     inkscape:window-y="-8"
     inkscape:window-maximized="1"
     inkscape:current-layer="svg49" /><g
     id="g52"
     inkscape:label="Dark Blue Background"
     style="stroke:none"><path
       d="M5.4068545,1.3992874 L-5.079514,1.3992874 -5.2354492,1.2300468 -5.6311768,0.8580202 -4.8986973,-0.6000028 -4.8035704,-0.7768119 5.130911,-0.7768119 5.2260379,-0.6000028 5.9585174,0.8580202 5.5627897,1.2300468 5.4068545,1.3992874z"
       stroke="rgb(100,100,100)"
       stroke-width="0.0010cm"
       stroke-linecap="round"
       stroke-linejoin="round"
       fill="none"
       id="path2"
       style="stroke-width:0.03;stroke-dasharray:none;fill:#66ade3;fill-opacity:1;stroke:none"
       transform="matrix(1,0,0,-1,6.1653652,1.9616448)" /><path
       d="M-4.9918385,1.1992874 L5.3191791,1.1992874 5.4205691,1.0892461 5.712829,0.8144904 5.0485821,-0.5077135 5.0114057,-0.5768119 -4.6840652,-0.5768119 -4.7212416,-0.5077135 -5.3854884,0.8144904 -5.0932286,1.0892461 -4.9918385,1.1992874z"
       transform="matrix(1,0,0,-1,6.1653653,1.9616448)"
       stroke="rgb(100,100,100)"
       stroke-width="0.0010cm"
       stroke-linecap="round"
       stroke-linejoin="round"
       fill="none"
       id="path1"
       style="stroke-width:0.03;stroke-dasharray:none;fill:#0732a5;fill-opacity:1;stroke:none" /><path
       d="M-5.079514,1.3992874 L5.4068545,1.3992874 0.1636703,1.9616448 -5.079514,1.3992874z"
       transform="matrix(1,0,0,-1,6.1653652,1.9616448)"
       stroke="rgb(100,100,100)"
       stroke-width="0.0010cm"
       stroke-linecap="round"
       stroke-linejoin="round"
       fill="none"
       id="path3"
       style="stroke-width:0.03;stroke-dasharray:none;fill:#0732a5;fill-opacity:1;stroke:none" /><path
       d="M-5.2354492,1.2300468 L-5.6986989,1.2300468 -6.1653652,0.8249863 -5.3986921,-0.6000028 -4.8986973,-0.6000028 -5.6311768,0.8580202 -5.2354492,1.2300468z"
       transform="matrix(1,0,0,-1,6.1653652,1.9616448)"
       stroke="rgb(100,100,100)"
       stroke-width="0.0010cm"
       stroke-linecap="round"
       stroke-linejoin="round"
       fill="none"
       id="path4"
       style="stroke-width:0.03;stroke-dasharray:none;fill:#0732a5;fill-opacity:1;stroke:none" /><path
       d="M-4.8035704,-0.7768119 L0.1636703,-1.3396508 5.130911,-0.7768119 -4.8035704,-0.7768119z"
       transform="matrix(1,0,0,-1,6.1653652,1.9616448)"
       stroke="rgb(100,100,100)"
       stroke-width="0.0010cm"
       stroke-linecap="round"
       stroke-linejoin="round"
       fill="none"
       id="path5"
       style="stroke-width:0.03;stroke-dasharray:none;fill:#0732a5;fill-opacity:1;stroke:none" /><path
       d="M5.5627897,1.2300468 L5.9585174,0.8580202 5.2260379,-0.6000028 5.7260327,-0.6000028 6.4927058,0.8249863 6.0260394,1.2300468 5.5627897,1.2300468z"
       transform="matrix(1,0,0,-1,6.1653652,1.9616448)"
       stroke="rgb(100,100,100)"
       stroke-width="0.0010cm"
       stroke-linecap="round"
       stroke-linejoin="round"
       fill="none"
       id="path6"
       style="stroke-width:0.03;stroke-dasharray:none;fill:#0732a5;fill-opacity:1;stroke:none" /></g><g
     id="g51"
     inkscape:label="White Letters"
     style="fill:#ffffff;fill-opacity:1;stroke:none"><path
       d="M5.0838835,0.4822142 L4.9272541,0.3901946 4.9286307,0.2085399 5.0866367,0.1189046 5.243266,0.2109242 5.2418894,0.392579 5.0838835,0.4822142z"
       transform="matrix(1,0,0,-1,6.1653653,1.9616448)"
       stroke="rgb(100,100,100)"
       stroke-width="0.0010cm"
       stroke-linecap="round"
       stroke-linejoin="round"
       fill="none"
       id="path7"
       style="stroke-width:0.03;stroke-dasharray:none;fill:#ffffff;fill-opacity:1;stroke:none" /><path
       d="M4.1182506,0.5135674 L3.7271113,-0.3469389 4.0230735,-0.3469389 4.1834404,0.0050864 4.2616683,0.0050864 4.2616683,0.0050864 4.2709012,0.0043107 4.2793056,0.0020959 4.2868604,-0.0014272 4.2935899,-0.0062477 4.2992751,-0.0122879 4.3036099,-0.0193283 4.3063563,-0.0271299 4.3073012,-0.0353314 4.3073012,-0.0353314 4.3063785,-0.0440575 4.30339,-0.0522807 4.1730102,-0.3469389 4.4572379,-0.3469389 4.5576305,-0.1265972 A0.1749305,0.1749305 334.7015899 0,1 4.5655054,-0.1069359 L4.5655054,-0.1069359 4.5696441,-0.0917252 4.5718422,-0.0761141 A0.073117,0.073117 356.5754403 0,1 4.5719727,-0.0718377 A0.0857377,0.0857377 359.2335256 0,1 4.53896,-0.0030754 A0.1172896,0.1172896 50.7903665 0,1 4.5276433,0.0050864 L4.5354657,0.0050864 A0.2098462,0.2098462 269.3882581 0,1 4.5707599,0.007694 L4.5707599,0.007694 4.5823784,0.0102261 4.5930194,0.0136978 4.6027679,0.0181699 4.6116928,0.0236916 4.6197669,0.0302112 4.6270666,0.0376883 4.6335683,0.0459128 4.6393263,0.0546698 A0.185074,0.185074 329.0953096 0,1 4.6488963,0.0728838 L4.7805803,0.3649344 A0.2013063,0.2013063 334.6570542 0,1 4.7875553,0.3815448 L4.7875553,0.3815448 4.7905286,0.3905191 4.7928619,0.399694 4.7943801,0.408989 4.7949218,0.4183901 4.7949218,0.4183901 4.7945213,0.4276761 4.7932816,0.4368349 4.7911452,0.4458112 4.7880549,0.4545496 4.7840212,0.4628683 4.7791037,0.4706205 4.7733244,0.4777881 4.7667321,0.4843294 4.75951,0.490124 4.7517554,0.4951848 4.7435474,0.4995441 4.7349735,0.5032317 4.7261253,0.5062796 4.7170707,0.5087307 4.6986099,0.5120158 A0.2140835,0.2140835 83.0964377 0,1 4.6723645,0.5135674 L4.1182506,0.5135674z"
       transform="matrix(1,0,0,-1,6.1653653,1.9616448)"
       stroke="rgb(100,100,100)"
       stroke-width="0.0010cm"
       stroke-linecap="round"
       stroke-linejoin="round"
       fill="none"
       id="path9"
       style="stroke-width:0.03;stroke-dasharray:none;fill:#ffffff;fill-opacity:1;stroke:none" /><path
       d="M3.9644026,0.5135674 L3.4454914,0.5135674 3.0543522,-0.3469389 3.5732634,-0.3469389 3.6593145,-0.1578883 3.4402759,-0.1578883 3.5145925,0.0050864 3.7336303,0.0050864 3.8196814,0.194137 3.6006436,0.194137 3.6593145,0.3245167 3.8783523,0.3245167 3.9644026,0.5135674z"
       transform="matrix(1,0,0,-1,6.1653653,1.9616448)"
       stroke="rgb(100,100,100)"
       stroke-width="0.0010cm"
       stroke-linecap="round"
       stroke-linejoin="round"
       fill="none"
       id="path10"
       style="stroke-width:0.03;stroke-dasharray:none;fill:#ffffff;fill-opacity:1;stroke:none" /><path
       d="M3.0344562,0.4963703 A0.1215009,0.1215009 113.4096615 0,1 2.9761243,0.4431623 L2.732314,0.0663649 2.7166683,0.5135674 2.4298329,0.5135674 2.5132762,-0.3469389 2.6945044,-0.3469389 3.1482257,0.2580231 A0.2000025,0.2000025 144.9642688 0,0 3.1757747,0.2896532 L3.1757747,0.2896532 3.1842059,0.2967471 3.193078,0.3030375 3.2024702,0.3085159 3.2124614,0.3131738 3.2230228,0.3169745 3.2340907,0.3199218 3.2457298,0.3220832 3.2580053,0.3235258 A0.281203,0.281203 94.8149184 0,0 3.2825167,0.3245167 L3.3046814,0.3245167 3.3907317,0.5135674 3.1377955,0.5135674 A0.3707087,0.3707087 89.580012 0,1 3.0850826,0.5101905 L3.0850826,0.5101905 3.0721025,0.5079717 3.0592673,0.5050072 3.0466891,0.5011833 3.0344562,0.4963703z"
       transform="matrix(1,0,0,-1,6.1653653,1.9616448)"
       stroke="rgb(100,100,100)"
       stroke-width="0.0010cm"
       stroke-linecap="round"
       stroke-linejoin="round"
       fill="none"
       id="path11"
       style="stroke-width:0.03;stroke-dasharray:none;fill:#ffffff;fill-opacity:1;stroke:none" /><path
       d="M2.3067289,0.500399 L2.3067289,0.500399 2.2984611,0.5037633 2.2899701,0.5065644 2.2725594,0.5106201 2.2547831,0.5128691 2.236871,0.5135674 1.8548585,0.5135674 A0.6118721,0.6118721 89.4462771 0,1 1.7858485,0.5103339 L1.7858485,0.5103339 1.7632865,0.5069473 1.7425431,0.5020557 1.7328045,0.4989811 1.7234618,0.4954531 1.7144956,0.4914457 1.7058885,0.4869346 1.6976707,0.4819268 1.6898381,0.4764234 1.6823638,0.4704149 1.6752265,0.463897 1.6621576,0.4496676 1.6506058,0.4341791 A0.31312,0.31312 146.3648994 0,1 1.6253901,0.3884028 L1.3607194,-0.1983061 A0.2376171,0.2376171 154.6220369 0,1 1.3528054,-0.2170155 L1.3528054,-0.2170155 1.3477761,-0.2331528 1.3460791,-0.2414197 1.3451651,-0.2498191 A0.0628952,0.0628952 176.9058517 0,1 1.3450736,-0.2530655 L1.3450736,-0.2530655 1.3454934,-0.2623607 1.3467897,-0.2715185 1.3490179,-0.2804837 1.3522322,-0.2891984 1.3564007,-0.2974536 1.361465,-0.305132 1.3673972,-0.312216 1.3741221,-0.3186479 1.3814569,-0.3243259 1.3893129,-0.3292754 1.3976076,-0.3335283 1.4062495,-0.3371142 1.4151553,-0.3400687 1.4242587,-0.3424345 1.4427932,-0.34557 A0.2160392,0.2160392 263.5449053 0,1 1.4676305,-0.3469389 L1.8496434,-0.3469389 A0.6021328,0.6021328 269.4444404 0,1 1.9193051,-0.3435752 L1.9193051,-0.3435752 1.9309948,-0.3419963 1.9421902,-0.3400583 1.9529114,-0.3377365 1.9631785,-0.3350059 1.9730113,-0.3318418 1.98243,-0.3282193 1.9914545,-0.3241137 2.000103,-0.319501 2.0083499,-0.3143872 2.0162004,-0.3087726 2.0236815,-0.3026478 2.0308149,-0.2960077 2.0438441,-0.2815245 2.0553174,-0.2657776 A0.3100691,0.3100691 326.9710516 0,1 2.0791118,-0.2217744 L2.345086,0.3649344 A0.2376171,0.2376171 334.6220738 0,1 2.353,0.3836439 L2.353,0.3836439 2.3580293,0.3997753 2.3597267,0.4080385 2.360641,0.4164344 A0.0628952,0.0628952 356.920358 0,1 2.3607318,0.4196939 A0.0852944,0.0852944 359.0906716 0,1 2.3067289,0.500399z"
       transform="matrix(1,0,0,-1,6.1653653,1.9616448)"
       stroke="rgb(100,100,100)"
       stroke-width="0.0010cm"
       stroke-linecap="round"
       stroke-linejoin="round"
       fill="none"
       id="path13"
       style="stroke-width:0.03;stroke-dasharray:none;fill:#ffffff;fill-opacity:1;stroke:none" /><path
       d="M0.3724407,0.5135674 L-0.0186986,-0.3469389 0.2811748,-0.3469389 0.5862638,0.3245167 0.7166435,0.3245167 0.4115546,-0.3469389 0.704909,-0.3469389 1.0099979,0.3245167 1.07258,0.3245167 A0.0526865,0.0526865 90.5777036 0,0 1.0938189,0.3202794 A0.0392313,0.0392313 67.7782694 0,0 1.1182129,0.284099 L1.1182129,0.284099 1.1171882,0.2754159 1.1143017,0.2671496 0.8352887,-0.3469389 1.1351622,-0.3469389 1.4585042,0.3649344 A0.1878381,0.1878381 334.6700475 0,1 1.4658185,0.3826791 L1.4658185,0.3826791 1.4707894,0.4002641 1.4722786,0.4092751 1.472846,0.4183901 1.472846,0.4183901 1.4724455,0.4276761 1.4712058,0.4368349 1.4690695,0.4458112 1.4659791,0.4545496 1.4619454,0.4628683 1.4570279,0.4706205 1.4512487,0.4777881 1.4446564,0.4843294 1.4374343,0.490124 1.4296796,0.4951848 1.4214716,0.4995441 1.4128977,0.5032317 1.4040496,0.5062796 1.3949949,0.5087307 1.3765342,0.5120158 A0.2140835,0.2140835 83.0964377 0,1 1.3502887,0.5135674 L0.3724407,0.5135674z"
       transform="matrix(1,0,0,-1,6.1653653,1.9616448)"
       stroke="rgb(100,100,100)"
       stroke-width="0.0010cm"
       stroke-linecap="round"
       stroke-linejoin="round"
       fill="none"
       id="path14"
       style="stroke-width:0.03;stroke-dasharray:none;fill:#ffffff;fill-opacity:1;stroke:none" /><path
       d="M0.2185927,0.5135674 L-0.3003185,0.5135674 -0.6914577,-0.3469389 -0.1725465,-0.3469389 -0.0864958,-0.1578883 -0.305534,-0.1578883 -0.2312174,0.0050864 -0.0121796,0.0050864 0.0738711,0.194137 -0.1451667,0.194137 -0.0864958,0.3245167 0.132542,0.3245167 0.2185927,0.5135674z"
       transform="matrix(1,0,0,-1,6.1653653,1.9616448)"
       stroke="rgb(100,100,100)"
       stroke-width="0.0010cm"
       stroke-linecap="round"
       stroke-linejoin="round"
       fill="none"
       id="path15"
       style="stroke-width:0.03;stroke-dasharray:none;fill:#ffffff;fill-opacity:1;stroke:none" /><path
       d="M-0.6275718,0.5135674 L-0.9274452,0.5135674 -1.3185844,-0.3469389 -0.7866352,-0.3469389 -0.7005845,-0.1578883 -0.9326603,-0.1578883 -0.6275718,0.5135674z"
       transform="matrix(1,0,0,-1,6.1653653,1.9616448)"
       stroke="rgb(100,100,100)"
       stroke-width="0.0010cm"
       stroke-linecap="round"
       stroke-linejoin="round"
       fill="none"
       id="path16"
       style="stroke-width:0.03;stroke-dasharray:none;fill:#ffffff;fill-opacity:1;stroke:none" /><path
       d="M-1.7970782,0.5135674 L-2.1882175,-0.3469389 -1.888344,-0.3469389 -1.7553565,-0.0561921 -1.4646099,-0.0561921 A0.5759265,0.5759265 269.5545651 0,1 -1.4132923,-0.0543016 L-1.4132923,-0.0543016 -1.3998031,-0.0527841 -1.3872274,-0.0507244 -1.3754946,-0.0480634 -1.3645341,-0.0447421 -1.3542752,-0.0407013 -1.3446823,-0.0359004 -1.3357756,-0.0303553 -1.3274813,-0.0240606 -1.3197202,-0.017009 -1.3124135,-0.0091931 -1.3054942,-0.0006205 -1.2989145,0.0086741 -1.2926288,0.0186532 -1.2865911,0.0292793 -1.2750766,0.0523229 A0.5704374,0.5704374 335.0811031 0,1 -1.2716476,0.0598459 L-1.1347489,0.3649344 A0.2013063,0.2013063 334.6570542 0,1 -1.1277739,0.3815448 L-1.1277739,0.3815448 -1.1248006,0.3905191 -1.1224673,0.399694 -1.1209491,0.408989 -1.1204074,0.4183901 -1.1204074,0.4183901 -1.1208079,0.4276761 -1.1220476,0.4368349 -1.1241839,0.4458112 -1.1272742,0.4545496 -1.1313079,0.4628683 -1.1362254,0.4706205 -1.1420046,0.4777881 -1.1485968,0.4843294 -1.1558189,0.490124 -1.1635735,0.4951848 -1.1717815,0.4995441 -1.1803554,0.5032317 -1.1892035,0.5062796 -1.1982581,0.5087307 -1.2167189,0.5120158 A0.2140835,0.2140835 83.0964377 0,1 -1.2429643,0.5135674 L-1.7970782,0.5135674z"
       transform="matrix(1,0,0,-1,6.1653653,1.9616448)"
       stroke="rgb(100,100,100)"
       stroke-width="0.0010cm"
       stroke-linecap="round"
       stroke-linejoin="round"
       fill="none"
       id="path18"
       style="stroke-width:0.03;stroke-dasharray:none;fill:#ffffff;fill-opacity:1;stroke:none" /><path
       d="M-2.0609928,0.500399 L-2.0609928,0.500399 -2.0692605,0.5037633 -2.0777514,0.5065644 -2.095162,0.5106201 -2.1129383,0.5128691 -2.1308502,0.5135674 -2.5128629,0.5135674 A0.6118721,0.6118721 89.4462771 0,1 -2.5818729,0.5103339 L-2.5818729,0.5103339 -2.6044349,0.5069473 -2.6251783,0.5020557 -2.6349169,0.4989811 -2.6442595,0.495453 -2.6532257,0.4914457 -2.6618329,0.4869345 -2.6700507,0.4819267 -2.6778833,0.4764234 -2.6853576,0.4704149 -2.692495,0.4638969 -2.7055639,0.4496676 -2.7171159,0.4341791 A0.31312,0.31312 146.3650993 0,1 -2.7423314,0.3884028 L-3.0070022,-0.1983061 A0.2376171,0.2376171 154.6217739 0,1 -3.0149163,-0.2170155 L-3.0149163,-0.2170155 -3.0199454,-0.2331528 -3.0216425,-0.2414197 -3.0225565,-0.2498191 A0.0628952,0.0628952 176.9111181 0,1 -3.0226477,-0.2530655 L-3.0226477,-0.2530655 -3.0222279,-0.2623607 -3.0209316,-0.2715185 -3.0187034,-0.2804837 -3.0154891,-0.2891984 -3.0113206,-0.2974537 -3.0062563,-0.305132 -3.0003241,-0.312216 -2.9935992,-0.318648 -2.9862644,-0.324326 -2.9784085,-0.3292754 -2.9701137,-0.3335283 -2.9614718,-0.3371142 -2.952566,-0.3400687 -2.9434625,-0.3424345 -2.9249281,-0.34557 A0.2160392,0.2160392 263.5449053 0,1 -2.9000907,-0.3469389 L-2.5180781,-0.3469389 A0.6021328,0.6021328 269.4444404 0,1 -2.4484163,-0.3435752 L-2.4484163,-0.3435752 -2.4367267,-0.3419963 -2.4255312,-0.3400583 -2.41481,-0.3377365 -2.404543,-0.3350059 -2.3947101,-0.3318418 -2.3852915,-0.3282193 -2.376267,-0.3241137 -2.3676184,-0.319501 -2.3593716,-0.3143872 -2.351521,-0.3087726 -2.34404,-0.3026478 -2.3369065,-0.2960077 -2.3238774,-0.2815245 -2.3124041,-0.2657776 A0.3100691,0.3100691 326.9712608 0,1 -2.2886098,-0.2217744 L-2.022635,0.3649344 A0.2376171,0.2376171 334.6220738 0,1 -2.014721,0.3836439 L-2.014721,0.3836439 -2.0096919,0.3997753 -2.0079947,0.4080385 -2.0070808,0.4164344 A0.0628952,0.0628952 356.9098674 0,1 -2.0069895,0.4196939 A0.0852944,0.0852944 359.0907763 0,1 -2.0609928,0.500399z"
       transform="matrix(1,0,0,-1,6.1653653,1.9616448)"
       stroke="rgb(100,100,100)"
       stroke-width="0.0010cm"
       stroke-linecap="round"
       stroke-linejoin="round"
       fill="none"
       id="path20"
       style="stroke-width:0.03;stroke-dasharray:none;fill:#ffffff;fill-opacity:1;stroke:none" /><path
       d="M-2.8388123,0.5135674 L-3.3577237,0.5135674 -3.748863,-0.3469389 -3.2299515,-0.3469389 -3.1439009,-0.1578883 -3.3629388,-0.1578883 -3.2886224,0.0050864 -3.0695844,0.0050864 -2.9835338,0.194137 -3.2025718,0.194137 -3.1439009,0.3245167 -2.924863,0.3245167 -2.8388123,0.5135674z"
       transform="matrix(1,0,0,-1,6.1653653,1.9616448)"
       stroke="rgb(100,100,100)"
       stroke-width="0.0010cm"
       stroke-linecap="round"
       stroke-linejoin="round"
       fill="none"
       id="path21"
       style="stroke-width:0.03;stroke-dasharray:none;fill:#ffffff;fill-opacity:1;stroke:none" /><path
       d="M-4.2273566,0.5135674 L-4.6184958,-0.3469389 -4.3186224,-0.3469389 -4.1856351,-0.0561921 -3.8948882,-0.0561921 A0.5759265,0.5759265 269.5545696 0,1 -3.8435708,-0.0543016 L-3.8435708,-0.0543016 -3.8300815,-0.0527841 -3.8175058,-0.0507244 -3.805773,-0.0480634 -3.7948125,-0.0447421 -3.7845536,-0.0407014 -3.7749608,-0.0359004 -3.766054,-0.0303553 -3.7577597,-0.0240607 -3.7499987,-0.0170091 -3.742692,-0.0091931 -3.7357726,-0.0006206 -3.729193,0.008674 -3.7229073,0.0186532 -3.7168696,0.0292793 -3.7053552,0.0523229 A0.5704374,0.5704374 335.0811031 0,1 -3.7019262,0.0598459 L-3.5650274,0.3649344 A0.2013063,0.2013063 334.6561627 0,1 -3.5580522,0.3815448 L-3.5580522,0.3815448 -3.555079,0.3905191 -3.5527457,0.399694 -3.5512274,0.408989 -3.5506857,0.4183901 -3.5506857,0.4183901 -3.5510862,0.4276761 -3.5523259,0.4368349 -3.5544622,0.4458112 -3.5575525,0.4545496 -3.5615862,0.4628683 -3.5665037,0.4706205 -3.5722829,0.477788 -3.5788752,0.4843294 -3.5860972,0.490124 -3.5938519,0.4951848 -3.6020599,0.4995441 -3.6106337,0.5032317 -3.6194819,0.5062796 -3.6285365,0.5087307 -3.6469972,0.5120158 A0.2140835,0.2140835 83.0964377 0,1 -3.6732427,0.5135674 L-4.2273566,0.5135674z"
       transform="matrix(1,0,0,-1,6.1653653,1.9616448)"
       stroke="rgb(100,100,100)"
       stroke-width="0.0010cm"
       stroke-linecap="round"
       stroke-linejoin="round"
       fill="none"
       id="path23"
       style="stroke-width:0.03;stroke-dasharray:none;fill:#ffffff;fill-opacity:1;stroke:none" /><path
       d="M-4.6012902,0.2085399 L-4.5999136,0.3901946 -4.756543,0.4822142 -4.9145489,0.392579 -4.9159255,0.2109242 -4.7592962,0.1189046 -4.6012902,0.2085399z"
       transform="matrix(1,0,0,-1,6.1653653,1.9616448)"
       stroke="rgb(100,100,100)"
       stroke-width="0.0010cm"
       stroke-linecap="round"
       stroke-linejoin="round"
       fill="none"
       id="path24"
       style="stroke-width:0.03;stroke-dasharray:none;fill:#ffffff;fill-opacity:1;stroke:none" /></g><g
     id="g49"
     inkscape:label="Light Blue Letters"
     style="fill:#66ade3;fill-opacity:1;stroke:none"><path
       d="M-3.2388983,0.8378073 A0.05,0.05 90 0,1 -3.2388983,0.7378073 L-2.1798051,0.7378073 A0.05,0.05 270 0,1 -2.1798051,0.8378073 L-3.2388983,0.8378073z"
       transform="matrix(1,0,0,-1,6.1653652,1.9616448)"
       stroke="rgb(100,100,100)"
       stroke-width="0.0010cm"
       stroke-linecap="round"
       stroke-linejoin="round"
       fill="none"
       id="path25"
       style="stroke-width:0.03;stroke-dasharray:none;fill:#66ade3;fill-opacity:1;stroke:none" /><path
       d="M-2.7758317,0.9878073 A0.05,0.05 90 0,1 -2.7758317,0.8878073 L-2.1798051,0.8878073 A0.05,0.05 270 0,1 -2.1798051,0.9878073 L-2.7758317,0.9878073z"
       transform="matrix(1,0,0,-1,6.1653652,1.9616448)"
       stroke="rgb(100,100,100)"
       stroke-width="0.0010cm"
       stroke-linecap="round"
       stroke-linejoin="round"
       fill="none"
       id="path26"
       style="stroke-width:0.03;stroke-dasharray:none;fill:#66ade3;fill-opacity:1;stroke:none" /><path
       d="M-2.0349704,1.0056498 L-2.0349704,0.9542922 -1.9490631,0.9542922 -1.9490631,0.7124446 -1.8949042,0.7124446 -1.8949042,0.9542922 -1.8089969,0.9542922 -1.8089969,1.0056498 -2.0349704,1.0056498z"
       transform="matrix(1,0,0,-1,6.1653652,1.9616448)"
       stroke="rgb(100,100,100)"
       stroke-width="0.0010cm"
       stroke-linecap="round"
       stroke-linejoin="round"
       fill="none"
       id="path27"
       style="stroke-width:0.03;stroke-dasharray:none;fill:#66ade3;fill-opacity:1;stroke:none" /><path
       d="M-1.5189526,0.9406731 A0.0927191,0.0927191 18.7464102 0,1 -1.5421709,0.9774032 L-1.5421709,0.9774032 -1.5500448,0.9843335 -1.5586553,0.9903323 -1.5678841,0.9953138 -1.5776169,0.9992616 -1.5876988,1.0021928 -1.5980026,1.004174 -1.6084529,1.005296 -1.6189738,1.0056498 -1.7585731,1.0056498 -1.7585731,0.8562459 -1.7935897,0.8562459 -1.7935897,0.8048883 -1.7585731,0.8048883 -1.7585731,0.7124446 -1.7044142,0.7124446 -1.7044142,0.8048883 -1.6381162,0.8048883 -1.576954,0.7124446 -1.5087885,0.7124446 -1.5820897,0.8170274 -1.5820897,0.8170274 -1.5679641,0.822438 -1.5547791,0.8298261 -1.5429045,0.8391448 -1.5325997,0.8501764 -1.5325997,0.8501764 -1.5281631,0.8561723 -1.5242677,0.8624724 -1.5209353,0.8690842 -1.5181875,0.8760153 -1.516072,0.8831672 -1.514599,0.890436 -1.5134573,0.9052691 A0.1096298,0.1096298 359.4181984 0,1 -1.5189526,0.9406731z"
       transform="matrix(1,0,0,-1,6.1653652,1.9616448)"
       stroke="rgb(100,100,100)"
       stroke-width="0.0010cm"
       stroke-linecap="round"
       stroke-linejoin="round"
       fill="none"
       id="path29"
       style="stroke-width:0.03;stroke-dasharray:none;fill:#66ade3;fill-opacity:1;stroke:none" /><path
       d="M-1.4583646,1.0056498 L-1.4583646,0.9570936 -1.3911329,0.9570936 -1.49805,0.7124446 -1.440156,0.7124446 -1.4177454,0.7675373 -1.2935534,0.7675373 -1.2711428,0.7124446 -1.2127819,0.7124446 -1.3369739,1.0056498 -1.4583646,1.0056498z"
       transform="matrix(1,0,0,-1,6.1653652,1.9616448)"
       stroke="rgb(100,100,100)"
       stroke-width="0.0010cm"
       stroke-linecap="round"
       stroke-linejoin="round"
       fill="none"
       id="path31"
       style="stroke-width:0.03;stroke-dasharray:none;fill:#66ade3;fill-opacity:1;stroke:none" /><path
       d="M-1.1786992,0.7124446 L-1.1245402,0.7124446 -1.1245402,0.8921962 -0.9354509,0.7063751 -0.9354509,1.0056498 -0.9896098,1.0056498 -0.9896098,0.8258982 -1.1786992,1.0117194 -1.1786992,0.7124446z"
       transform="matrix(1,0,0,-1,6.1653652,1.9616448)"
       stroke="rgb(100,100,100)"
       stroke-width="0.0010cm"
       stroke-linecap="round"
       stroke-linejoin="round"
       fill="none"
       id="path32"
       style="stroke-width:0.03;stroke-dasharray:none;fill:#66ade3;fill-opacity:1;stroke:none" /><path
       d="M-0.8714874,0.9589611 L-0.8714874,0.9589611 -0.8755648,0.9506346 -0.8785102,0.9418452 -0.8802586,0.9327379 -0.8808251,0.9234777 A0.0971125,0.0971125 179.6870257 0,1 -0.8794151,0.9064503 L-0.8794151,0.9064503 -0.8762233,0.8944509 -0.8738019,0.8887413 -0.870787,0.8833254 -0.870787,0.8833254 -0.8654724,0.8759741 -0.8592446,0.8693845 -0.8521782,0.8637118 -0.8444079,0.8590472 -0.8444079,0.8590472 -0.8279965,0.8518695 -0.8194777,0.8490983 -0.8107919,0.8469082 -0.8107919,0.8469082 -0.7879141,0.8427223 -0.7650371,0.839438 -0.7650371,0.839438 -0.7346894,0.8345357 A0.1316715,0.1316715 80.3030207 0,0 -0.721794,0.8316596 A0.1034202,0.1034202 74.5232139 0,0 -0.7127456,0.8286996 A0.0427295,0.0427295 69.4583924 0,0 -0.7047246,0.824689 A0.0321825,0.0321825 57.4653612 0,0 -0.6973384,0.8181946 A0.0242781,0.0242781 39.457436 0,0 -0.6918991,0.8048977 A0.0317857,0.0317857 5.8135449 0,0 -0.6917357,0.8016201 A0.0341995,0.0341995 1.3611571 0,0 -0.7041316,0.7744519 A0.0486637,0.0486637 310.3923192 0,0 -0.7108781,0.7696383 A0.0752109,0.0752109 300.3459803 0,0 -0.7298478,0.7617806 L-0.7298478,0.7617806 -0.7392761,0.7597015 -0.74885,0.7584237 A0.159456,0.159456 275.386691 0,0 -0.7617688,0.7577327 L-0.7617688,0.7577327 -0.7739384,0.7583975 -0.7859551,0.760423 -0.7976637,0.7638048 -0.8089244,0.7684711 -0.8089244,0.7684711 -0.8198038,0.7743042 -0.8301003,0.7811129 -0.8397245,0.7888451 -0.8486098,0.7974181 -0.8896959,0.760534 A0.1699189,0.1699189 223.1207029 0,1 -0.8430819,0.7254194 A0.160217,0.160217 243.1635933 0,1 -0.8304013,0.7196814 A0.1819413,0.1819413 247.8125022 0,1 -0.7809346,0.7072295 A0.165913,0.165913 264.1827994 0,1 -0.7641032,0.7063751 L-0.7641032,0.7063751 -0.7518123,0.7067848 -0.7395797,0.7080368 -0.7274702,0.7101546 -0.715547,0.713145 A0.1437452,0.1437452 285.9114045 0,1 -0.6849518,0.725835 A0.127647,0.127647 299.3605106 0,1 -0.673994,0.7327542 A0.0985599,0.0985599 304.791035 0,1 -0.6489362,0.7579708 A0.0938023,0.0938023 325.8142442 0,1 -0.6452805,0.7638022 A0.0791747,0.0791747 330.1882367 0,1 -0.6348176,0.8016341 A0.0939797,0.0939797 358.2862653 0,1 -0.6347755,0.8044214 A0.1006562,0.1006562 359.69106 0,1 -0.6361856,0.8217616 L-0.6361856,0.8217616 -0.6383901,0.8310102 -0.6418395,0.8398582 A0.0567735,0.0567735 25.653281 0,1 -0.6448136,0.8452741 L-0.6448136,0.8452741 -0.6501049,0.8526974 -0.6563219,0.8593575 -0.6633952,0.8650875 -0.6711927,0.8697856 -0.6711927,0.8697856 -0.6794965,0.8737029 -0.6880501,0.8770398 -0.6968134,0.8797815 -0.7057423,0.8819247 -0.7057423,0.8819247 -0.7347501,0.8870605 A1.0649978,1.0649978 81.1724574 0,1 -0.7505635,0.8893949 L-0.7505635,0.8893949 -0.781845,0.8938303 A0.1252985,0.1252985 259.9145826 0,0 -0.7943108,0.896711 A0.1009924,0.1009924 254.0197005 0,0 -0.8030883,0.8996664 L-0.8030883,0.8996664 -0.8113333,0.9038783 -0.8150113,0.9066679 -0.8182622,0.909938 A0.0230549,0.0230549 220.4088624 0,0 -0.8235987,0.9221424 A0.0309173,0.0309173 187.5252332 0,0 -0.8238649,0.926279 A0.030399,0.030399 179.7164747 0,0 -0.8172678,0.9450385 L-0.8172678,0.9450385 -0.8135156,0.9493366 -0.8092794,0.953167 A0.0622688,0.0622688 129.1800578 0,0 -0.8084575,0.9538254 L-0.8084575,0.9538254 -0.8016568,0.9582051 -0.7942087,0.9614068 -0.7863421,0.9636194 -0.7782919,0.965012 A0.1264517,0.1264517 97.0412054 0,0 -0.7622357,0.9659644 A0.1072207,0.1072207 90.354371 0,0 -0.7259773,0.9598855 A0.1018841,0.1018841 70.4022568 0,0 -0.7211497,0.9580273 L-0.7211497,0.9580273 -0.711944,0.9535617 -0.7032515,0.9481558 -0.695045,0.9419919 -0.6873143,0.9352432 A0.1757877,0.1757877 47.0173914 0,0 -0.6828649,0.9309479 L-0.6427125,0.9668982 A0.1466073,0.1466073 44.5426092 0,1 -0.726883,1.0092542 A0.2071439,0.2071439 81.149757 0,1 -0.7594344,1.0117194 A0.1742377,0.1742377 89.7891824 0,1 -0.797948,1.0075547 A0.158793,0.158793 102.7026173 0,1 -0.8063566,1.0054164 A0.1354487,0.1354487 105.6238079 0,1 -0.8319794,0.9953456 A0.1149803,0.1149803 117.4410665 0,1 -0.8453416,0.9872078 L-0.8453416,0.9872078 -0.8529893,0.9812289 -0.8599883,0.9745091 -0.866193,0.9670692 -0.8714874,0.9589611z"
       transform="matrix(1,0,0,-1,6.1653652,1.9616448)"
       stroke="rgb(100,100,100)"
       stroke-width="0.0010cm"
       stroke-linecap="round"
       stroke-linejoin="round"
       fill="none"
       id="path33"
       style="stroke-width:0.03;stroke-dasharray:none;fill:#66ade3;fill-opacity:1;stroke:none" /><path
       d="M-0.5241232,0.7124446 L-0.5241232,1.0056498 -0.5782822,1.0056498 -0.5782822,0.7124446 -0.5241232,0.7124446z"
       transform="matrix(1,0,0,-1,6.1653652,1.9616448)"
       stroke="rgb(100,100,100)"
       stroke-width="0.0010cm"
       stroke-linecap="round"
       stroke-linejoin="round"
       fill="none"
       id="path34"
       style="stroke-width:0.03;stroke-dasharray:none;fill:#66ade3;fill-opacity:1;stroke:none" /><path
       d="M-0.4779014,1.0056498 L-0.4779014,0.9542922 -0.3919942,0.9542922 -0.3919942,0.7124446 -0.3378352,0.7124446 -0.3378352,0.9542922 -0.251928,0.9542922 -0.251928,1.0056498 -0.4779014,1.0056498z"
       transform="matrix(1,0,0,-1,6.1653652,1.9616448)"
       stroke="rgb(100,100,100)"
       stroke-width="0.0010cm"
       stroke-linecap="round"
       stroke-linejoin="round"
       fill="none"
       id="path35"
       style="stroke-width:0.03;stroke-dasharray:none;fill:#66ade3;fill-opacity:1;stroke:none" /><path
       d="M-0.0787128,1.0056498 L-0.0787128,0.9570936 -0.0114811,0.9570936 -0.1183982,0.7124446 -0.0605042,0.7124446 -0.0380936,0.7675373 0.0860983,0.7675373 0.108509,0.7124446 0.1668699,0.7124446 0.0426779,1.0056498 -0.0787128,1.0056498z"
       transform="matrix(1,0,0,-1,6.1653652,1.9616448)"
       stroke="rgb(100,100,100)"
       stroke-width="0.0010cm"
       stroke-linecap="round"
       stroke-linejoin="round"
       fill="none"
       id="path37"
       style="stroke-width:0.03;stroke-dasharray:none;fill:#66ade3;fill-opacity:1;stroke:none" /><path
       d="M0.4227849,0.7408034 A0.1179217,0.1179217 313.5264863 0,1 0.4255254,0.7434926 L0.4255254,0.7434926 0.4336431,0.7525532 0.4408313,0.7623664 0.44701,0.7728455 0.4521381,0.7838784 0.4521381,0.7838784 0.4562331,0.7954957 0.4591647,0.8074598 0.4609063,0.8196575 0.4614758,0.8319678 0.4614758,1.0056498 0.4073167,1.0056498 0.4073167,0.84364 0.4073167,0.84364 0.4061938,0.8266231 0.4046822,0.8182433 0.4024413,0.8100346 0.3994109,0.8020877 0.3956038,0.794591 0.3910087,0.7875827 0.3856066,0.7810771 A0.0707801,0.0707801 317.8726791 0,0 0.3342536,0.7577841 A0.0894089,0.0894089 271.9422436 0,0 0.3312141,0.7577327 A0.0727177,0.0727177 270.8060035 0,0 0.2965805,0.7659593 A0.0751128,0.0751128 241.7113461 0,0 0.2770553,0.7810771 A0.0785304,0.0785304 222.890511 0,0 0.2577028,0.8185494 A0.1149616,0.1149616 192.1946111 0,0 0.2551116,0.84364 L0.2551116,1.0056498 0.2009526,1.0056498 0.2009526,0.8319678 0.2009526,0.8319678 0.2015221,0.8196575 0.2032638,0.8074598 0.2061953,0.7954957 0.2102904,0.7838784 0.2102904,0.7838784 0.2154184,0.7728455 0.2215971,0.7623664 0.2287853,0.7525532 0.236903,0.7434926 A0.1217875,0.1217875 224.8079778 0,1 0.2774708,0.7164879 A0.1387636,0.1387636 247.5436154 0,1 0.2782226,0.7161797 A0.133315,0.133315 248.0728965 0,1 0.3170488,0.7069867 A0.16081,0.16081 265.0008826 0,1 0.3312141,0.7063751 A0.1488156,0.1488156 269.7115754 0,1 0.3646714,0.7100121 A0.1271894,0.1271894 282.9032057 0,1 0.384206,0.7161797 A0.1226373,0.1226373 291.7945049 0,1 0.4227849,0.7408034z"
       transform="matrix(1,0,0,-1,6.1653652,1.9616448)"
       stroke="rgb(100,100,100)"
       stroke-width="0.0010cm"
       stroke-linecap="round"
       stroke-linejoin="round"
       fill="none"
       id="path38"
       style="stroke-width:0.03;stroke-dasharray:none;fill:#66ade3;fill-opacity:1;stroke:none" /><path
       d="M0.5039624,1.0056498 L0.5039624,0.9542922 0.5898698,0.9542922 0.5898698,0.7124446 0.6440286,0.7124446 0.6440286,0.9542922 0.729936,0.9542922 0.729936,1.0056498 0.5039624,1.0056498z"
       transform="matrix(1,0,0,-1,6.1653652,1.9616448)"
       stroke="rgb(100,100,100)"
       stroke-width="0.0010cm"
       stroke-linecap="round"
       stroke-linejoin="round"
       fill="none"
       id="path39"
       style="stroke-width:0.03;stroke-dasharray:none;fill:#66ade3;fill-opacity:1;stroke:none" /><path
       d="M0.7453432,0.8884611 L0.7453432,0.8371035 0.7803597,0.8371035 0.7803597,0.7124446 0.8345185,0.7124446 0.8345185,0.8371035 0.9685152,0.8371035 0.9685152,0.7124446 1.0226743,0.7124446 1.0226743,1.0056498 0.9685152,1.0056498 0.9685152,0.8884611 0.8345185,0.8884611 0.8345185,1.0056498 0.7803597,1.0056498 0.7803597,0.8884611 0.7453432,0.8884611z"
       transform="matrix(1,0,0,-1,6.1653652,1.9616448)"
       stroke="rgb(100,100,100)"
       stroke-width="0.0010cm"
       stroke-linecap="round"
       stroke-linejoin="round"
       fill="none"
       id="path40"
       style="stroke-width:0.03;stroke-dasharray:none;fill:#66ade3;fill-opacity:1;stroke:none" /><path
       d="M1.6852946,0.9406731 A0.0927191,0.0927191 18.7465112 0,1 1.6620762,0.9774032 L1.6620762,0.9774032 1.6542023,0.9843335 1.6455918,0.9903323 1.6363631,0.9953138 1.6266303,0.9992616 1.6165484,1.0021928 1.6062446,1.004174 1.5957944,1.005296 1.5852735,1.0056498 1.4456741,1.0056498 1.4456741,0.8562459 1.4106575,0.8562459 1.4106575,0.8048883 1.4456741,0.8048883 1.4456741,0.7124446 1.4998329,0.7124446 1.4998329,0.8048883 1.5661309,0.8048883 1.6272933,0.7124446 1.6954587,0.7124446 1.6221574,0.8170274 1.6221574,0.8170274 1.636283,0.822438 1.6494681,0.8298261 1.6613428,0.8391448 1.6716476,0.8501764 1.6716476,0.8501764 1.6760842,0.8561723 1.6799795,0.8624724 1.6833119,0.8690842 1.6860597,0.8760153 1.6881752,0.8831672 1.6896482,0.890436 1.6907899,0.9052691 A0.1096298,0.1096298 359.4182533 0,1 1.6852946,0.9406731z"
       transform="matrix(1,0,0,-1,6.1653652,1.9616448)"
       stroke="rgb(100,100,100)"
       stroke-width="0.0010cm"
       stroke-linecap="round"
       stroke-linejoin="round"
       fill="none"
       id="path44"
       style="stroke-width:0.03;stroke-dasharray:none;fill:#66ade3;fill-opacity:1;stroke:none" /><path
       d="M1.7981739,0.7124446 L1.7981739,1.0056498 1.7440151,1.0056498 1.7440151,0.7124446 1.7981739,0.7124446z"
       transform="matrix(1,0,0,-1,6.1653652,1.9616448)"
       stroke="rgb(100,100,100)"
       stroke-width="0.0010cm"
       stroke-linecap="round"
       stroke-linejoin="round"
       fill="none"
       id="path45"
       style="stroke-width:0.03;stroke-dasharray:none;fill:#66ade3;fill-opacity:1;stroke:none" /><path
       d="M1.8443959,1.0056498 L1.8443959,0.9542922 1.930303,0.9542922 1.930303,0.7124446 1.9844621,0.7124446 1.9844621,0.9542922 2.0703691,0.9542922 2.0703691,1.0056498 1.8443959,1.0056498z"
       transform="matrix(1,0,0,-1,6.1653652,1.9616448)"
       stroke="rgb(100,100,100)"
       stroke-width="0.0010cm"
       stroke-linecap="round"
       stroke-linejoin="round"
       fill="none"
       id="path46"
       style="stroke-width:0.03;stroke-dasharray:none;fill:#66ade3;fill-opacity:1;stroke:none" /><path
       d="M2.1432037,1.0056498 L2.0806407,1.0056498 2.1856903,0.8417724 2.1856903,0.7124446 2.2398491,0.7124446 2.2398491,0.8417724 2.3448988,1.0056498 2.2823361,1.0056498 2.2127697,0.8917293 2.1432037,1.0056498z"
       transform="matrix(1,0,0,-1,6.1653652,1.9616448)"
       stroke="rgb(100,100,100)"
       stroke-width="0.0010cm"
       stroke-linecap="round"
       stroke-linejoin="round"
       fill="none"
       id="path47"
       style="stroke-width:0.03;stroke-dasharray:none;fill:#66ade3;fill-opacity:1;stroke:none" /><path
       d="M3.1031723,0.8878073 A0.05,0.05 270 0,1 3.1031723,0.9878073 L2.5071457,0.9878073 A0.05,0.05 90 0,1 2.5071457,0.8878073 L3.1031723,0.8878073z"
       transform="matrix(1,0,0,-1,6.1653652,1.9616448)"
       stroke="rgb(100,100,100)"
       stroke-width="0.0010cm"
       stroke-linecap="round"
       stroke-linejoin="round"
       fill="none"
       id="path48"
       style="stroke-width:0.03;stroke-dasharray:none;fill:#66ade3;fill-opacity:1;stroke:none" /><path
       d="M2.5071457,0.8378073 A0.05,0.05 90 0,1 2.5071457,0.7378073 L3.5662388,0.7378073 A0.05,0.05 270 0,1 3.5662388,0.8378073 L2.5071457,0.8378073z"
       transform="matrix(1,0,0,-1,6.1653652,1.9616448)"
       stroke="rgb(100,100,100)"
       stroke-width="0.0010cm"
       stroke-linecap="round"
       stroke-linejoin="round"
       fill="none"
       id="path49"
       style="stroke-width:0.03;stroke-dasharray:none;fill:#66ade3;fill-opacity:1;stroke:none" /><path
       d="M1.2339593,1.0116914 A0.1813904,0.1813904 88.9920934 0,1 1.2309059,1.0117194 L1.2309059,1.0117194 1.2152583,1.0110134 1.1997486,1.0088471 1.1845292,1.0051854 1.1697438,1.0000472 1.1697438,1.0000472 1.1560173,0.993786 1.1429376,0.9862744 1.1306616,0.9775257 1.1193198,0.9675985 1.1193198,0.9675985 1.1091348,0.9567223 1.1000878,0.9448825 1.0922647,0.9321955 1.0857041,0.9188088 1.0857041,0.9188088 1.0803505,0.9044327 1.0765409,0.8895711 1.0742941,0.8743853 1.0735649,0.8590472 1.0735649,0.8590472 1.0742902,0.8437637 1.0765304,0.8286327 1.0803387,0.8138295 1.0857041,0.7995191 1.0857041,0.7995191 1.0923278,0.7861314 1.1002214,0.7734527 1.1093302,0.7616178 1.1195534,0.7507294 1.1195534,0.7507294 1.1309045,0.7407617 1.1431751,0.7319499 1.1562478,0.7243686 1.1699772,0.7180473 1.1699772,0.7180473 1.1846977,0.7128979 1.1998588,0.7092374 1.2153133,0.7070773 1.2309059,0.7063751 A0.1618698,0.1618698 269.6234772 0,1 1.2900513,0.7171509 A0.155917,0.155917 291.2742682 0,1 1.2923017,0.7180473 L1.2923017,0.7180473 1.3059629,0.7243265 1.3189775,0.7318481 1.3311952,0.7405925 1.3424921,0.7504959 1.3424921,0.7504959 1.3526771,0.7613722 1.3617241,0.773212 1.3695471,0.785899 1.3761077,0.7992857 1.3761077,0.7992857 1.3814614,0.8136618 1.3852709,0.8285234 1.3875178,0.8437091 1.388247,0.8590472 1.388247,0.8590472 1.3875332,0.8743711 1.3853326,0.8895486 1.3815979,0.9044134 1.3763414,0.9188088 1.3763414,0.9188088 1.3698187,0.9322584 1.3619566,0.944969 1.352811,0.9567876 1.3424921,0.9675985 1.3424921,0.9675985 1.3310813,0.9774416 1.3187989,0.9861731 1.3057509,0.9937193 1.292068,1.0000472 A0.1589004,0.1589004 67.921303 0,1 1.2339593,1.0116914z"
       transform="matrix(1,0,0,-1,6.1653653,1.9616448)"
       stroke="rgb(100,100,100)"
       stroke-width="0.0010cm"
       stroke-linecap="round"
       stroke-linejoin="round"
       fill="none"
       id="path42"
       style="fill:#66ade3;fill-opacity:1;stroke-width:0.03;stroke-dasharray:none;stroke:none" /></g><g
     id="g50"
     inkscape:label="Dark Blue Letters"
     style="fill:#0732a5;fill-opacity:1;stroke:none"><path
       d="M-1.5818563,0.8702525 A0.046502,0.046502 314.0694812 0,1 -1.5709591,0.8865562 A0.0508954,0.0508954 339.1084437 0,1 -1.5676162,0.9052691 L-1.5676162,0.9052691 -1.5684315,0.914922 -1.5710537,0.9242236 -1.5756075,0.9328169 -1.5818563,0.9402856 A0.0427155,0.0427155 45.550852 0,1 -1.5907458,0.9469761 L-1.5907458,0.9469761 -1.5987003,0.9505783 -1.6071476,0.9528542 A0.0836989,0.0836989 79.356708 0,1 -1.6231758,0.9542922 L-1.7044142,0.9542922 -1.7044142,0.8562459 -1.6231758,0.8562459 A0.0960107,0.0960107 269.946461 0,1 -1.6167374,0.856456 L-1.6167374,0.856456 -1.6087552,0.8573874 -1.600938,0.85922 A0.0457036,0.0457036 286.0818001 0,1 -1.5818563,0.8702525z"
       transform="matrix(1,0,0,-1,6.1653652,1.9616448)"
       stroke="rgb(100,100,100)"
       stroke-width="0.0010cm"
       stroke-linecap="round"
       stroke-linejoin="round"
       fill="none"
       id="path28"
       style="stroke-width:0.03;stroke-dasharray:none;fill:#0732a5;fill-opacity:1;stroke:none" /><path
       d="M-1.3126958,0.8160936 L-1.3981362,0.8160936 -1.3551825,0.9211432 -1.3126958,0.8160936z"
       transform="matrix(1,0,0,-1,6.1653652,1.9616448)"
       stroke="rgb(100,100,100)"
       stroke-width="0.0010cm"
       stroke-linecap="round"
       stroke-linejoin="round"
       fill="none"
       id="path30"
       style="stroke-width:0.03;stroke-dasharray:none;fill:#0732a5;fill-opacity:1;stroke:none" /><path
       d="M0.0669561,0.8160936 L-0.0184844,0.8160936 0.0244693,0.9211432 0.0669561,0.8160936z"
       transform="matrix(1,0,0,-1,6.1653652,1.9616448)"
       stroke="rgb(100,100,100)"
       stroke-width="0.0010cm"
       stroke-linecap="round"
       stroke-linejoin="round"
       fill="none"
       id="path36"
       style="stroke-width:0.03;stroke-dasharray:none;fill:#0732a5;fill-opacity:1;stroke:none" /><path
       d="M1.2309059,0.7577327 L1.2309059,0.7577327 1.2406039,0.7582123 1.2502036,0.7596665 1.2596069,0.7620894 1.2687237,0.7654363 1.2687237,0.7654363 1.2775743,0.769679 1.2859814,0.7747433 1.2938672,0.7805885 1.3011724,0.7871466 1.3011724,0.7871466 1.3078808,0.794406 1.3138509,0.8022829 1.3190186,0.8107089 1.3233495,0.8195953 1.3233495,0.8195953 1.3268572,0.8290898 1.3293469,0.838902 1.3308121,0.8489254 1.3312867,0.8590472 1.3312867,0.8590472 1.3308121,0.8691691 1.3293469,0.8791925 1.3268572,0.8890047 1.3233495,0.8984992 1.3233495,0.8984992 1.3190186,0.9073855 1.3138509,0.9158115 1.3078808,0.9236885 1.3011724,0.9309479 1.3011724,0.9309479 1.2938672,0.937506 1.2859814,0.9433512 1.2775743,0.9484155 1.2687237,0.9526581 1.2687237,0.9526581 1.2596069,0.9560051 1.2502036,0.958428 1.2406039,0.9598822 1.2309059,0.9603618 1.2309059,0.9603618 1.2212079,0.9598822 1.2116082,0.958428 1.202205,0.9560051 1.1930882,0.9526581 1.1930882,0.9526581 1.1842805,0.9484308 1.1759225,0.9433737 1.1680984,0.9375239 1.1608728,0.9309479 1.1608728,0.9309479 1.1542185,0.9236484 1.1482752,0.9157591 1.1430929,0.9073478 1.1386957,0.8984992 1.1386957,0.8984992 1.1350911,0.8890242 1.1325266,0.8792153 1.1310152,0.8691835 1.1305252,0.8590472 1.1305252,0.8590472 1.1310152,0.848911 1.1325266,0.8388792 1.1350911,0.8290703 1.1386957,0.8195953 1.1386957,0.8195953 1.1430929,0.8107466 1.1482752,0.8023354 1.1542185,0.7944461 1.1608728,0.7871466 1.1608728,0.7871466 1.1680984,0.7805706 1.1759225,0.7747208 1.1842805,0.7696637 1.1930882,0.7654363 1.1930882,0.7654363 1.202205,0.7620894 1.2116082,0.7596665 1.2212079,0.7582123 1.2309059,0.7577327z"
       transform="matrix(1,0,0,-1,6.1653652,1.9616448)"
       stroke="rgb(100,100,100)"
       stroke-width="0.0010cm"
       stroke-linecap="round"
       stroke-linejoin="round"
       fill="none"
       id="path41"
       style="stroke-width:0.03;stroke-dasharray:none;fill:#0732a5;fill-opacity:1;stroke:none" /><path
       d="M1.6223908,0.8702525 A0.046502,0.046502 314.0688872 0,1 1.6332881,0.8865562 A0.0508954,0.0508954 339.1083345 0,1 1.6366311,0.9052691 L1.6366311,0.9052691 1.6358158,0.914922 1.6331935,0.9242237 1.6286396,0.9328169 1.6223908,0.9402856 A0.0427155,0.0427155 45.5507609 0,1 1.6135013,0.9469761 L1.6135013,0.9469761 1.6055467,0.9505783 1.5970995,0.9528542 A0.0836989,0.0836989 79.3567106 0,1 1.5810714,0.9542922 L1.4998329,0.9542922 1.4998329,0.8562459 1.5810714,0.8562459 A0.0960107,0.0960107 269.9463981 0,1 1.5875099,0.856456 L1.5875099,0.856456 1.5954921,0.8573874 1.6033092,0.85922 A0.0457036,0.0457036 286.0820651 0,1 1.6223908,0.8702525z"
       transform="matrix(1,0,0,-1,6.1653652,1.9616448)"
       stroke="rgb(100,100,100)"
       stroke-width="0.0010cm"
       stroke-linecap="round"
       stroke-linejoin="round"
       fill="none"
       id="path43"
       style="stroke-width:0.03;stroke-dasharray:none;fill:#0732a5;fill-opacity:1;stroke:none" /><path
       d="M4.4142127,0.1850104 L4.2668838,0.1850104 4.3294659,0.3271243 4.4063903,0.3271243 4.4063903,0.3271243 4.4160397,0.3264866 4.4246586,0.3246333 4.4322415,0.3216312 4.4389841,0.3173382 4.4446392,0.3116794 4.4487833,0.304891 4.451243,0.2972837 4.4520232,0.2893142 A0.051513,0.051513 359.7742116 0,0 4.4490239,0.2721953 A0.0595705,0.0595705 340.7439423 0,0 4.4481119,0.2697572 L4.4142127,0.1850104z"
       transform="matrix(1,0,0,-1,6.1653653,1.9616448)"
       stroke="rgb(100,100,100)"
       stroke-width="0.0010cm"
       stroke-linecap="round"
       stroke-linejoin="round"
       fill="none"
       id="path8"
       style="stroke-width:0.03;stroke-dasharray:none;fill:#0732a5;fill-opacity:1;stroke:none" /><path
       d="M2.0060991,0.2867066 A0.0335858,0.0335858 358.9030014 0,1 1.9932175,0.3137995 L1.9932175,0.3137995 1.9849382,0.3189049 1.9757598,0.322209 A0.0754116,0.0754116 75.7795344 0,1 1.9565545,0.3245167 A0.1185021,0.1185021 89.9566207 0,1 1.9478583,0.3242038 L1.9478583,0.3242038 1.9325657,0.3219331 1.9251315,0.319891 1.9178816,0.3171882 1.9109264,0.3138248 1.9043829,0.3098472 1.8982498,0.305264 1.8925253,0.3000836 A0.1036258,0.1036258 135.4534503 0,1 1.8718077,0.2697572 L1.7062257,-0.0979137 1.7062257,-0.0979137 1.7038641,-0.1034824 1.7022241,-0.1093043 1.701295,-0.1153092 1.7010106,-0.121382 A0.0315649,0.0315649 178.7047327 0,1 1.7197459,-0.1509391 L1.7197459,-0.1509391 1.7283141,-0.1543412 1.7372972,-0.1564447 1.7465083,-0.1575567 1.7557698,-0.1578883 A0.1013572,0.1013572 269.8341212 0,1 1.7563567,-0.1578883 L1.7563567,-0.1578883 1.7687884,-0.1569893 1.7808929,-0.1542676 1.7924088,-0.1495259 1.8027958,-0.1429208 1.8120629,-0.1345872 1.8200911,-0.1249148 1.8269271,-0.1143109 1.8326938,-0.1031288 2.000884,0.2671496 A0.192284,0.192284 337.8553959 0,1 2.0032566,0.2732775 A0.0400396,0.0400396 338.1787368 0,1 2.0060991,0.2867066z"
       transform="matrix(1,0,0,-1,6.1653653,1.9616448)"
       stroke="rgb(100,100,100)"
       stroke-width="0.0010cm"
       stroke-linecap="round"
       stroke-linejoin="round"
       fill="none"
       id="path12"
       style="stroke-width:0.03;stroke-dasharray:none;fill:#0732a5;fill-opacity:1;stroke:none" /><path
       d="M-1.5376224,0.1328585 L-1.669306,0.1328585 -1.5832553,0.3245167 -1.520673,0.3245167 -1.520673,0.3245167 -1.5111767,0.3238538 -1.5026644,0.3219414 -1.4951366,0.3188704 -1.4884237,0.3145406 -1.4827455,0.3089085 -1.4784964,0.302188 -1.4758936,0.2946416 -1.4750401,0.2867066 A0.051513,0.051513 359.7754649 0,0 -1.478039,0.2695877 A0.0595705,0.0595705 340.7317397 0,0 -1.4789515,0.2671496 L-1.5376224,0.1328585z"
       transform="matrix(1,0,0,-1,6.1653653,1.9616448)"
       stroke="rgb(100,100,100)"
       stroke-width="0.0010cm"
       stroke-linecap="round"
       stroke-linejoin="round"
       fill="none"
       id="path17"
       style="stroke-width:0.03;stroke-dasharray:none;fill:#0732a5;fill-opacity:1;stroke:none" /><path
       d="M-2.3616224,0.2867066 A0.0335858,0.0335858 358.9030014 0,1 -2.374504,0.3137995 L-2.374504,0.3137995 -2.3827833,0.3189049 -2.3919619,0.322209 A0.0754116,0.0754116 75.7795451 0,1 -2.4111667,0.3245167 A0.1185021,0.1185021 89.9565255 0,1 -2.4198631,0.3242038 L-2.4198631,0.3242038 -2.4351557,0.3219331 -2.4425899,0.3198911 -2.4498398,0.3171882 -2.4567951,0.3138248 -2.4633386,0.3098472 -2.4694717,0.305264 -2.4751961,0.3000836 A0.1036258,0.1036258 135.4537381 0,1 -2.4959135,0.2697572 L-2.6614958,-0.0979137 -2.6614958,-0.0979137 -2.6638573,-0.1034825 -2.6654974,-0.1093043 -2.6664266,-0.1153093 -2.6667111,-0.121382 A0.0315649,0.0315649 178.7048917 0,1 -2.6479756,-0.1509391 L-2.6479756,-0.1509391 -2.6394074,-0.1543412 -2.6304243,-0.1564447 -2.6212131,-0.1575567 -2.6119516,-0.1578883 A0.1013572,0.1013572 269.8341212 0,1 -2.6113647,-0.1578883 L-2.6113647,-0.1578883 -2.598933,-0.1569893 -2.5868286,-0.1542676 -2.5753126,-0.1495259 -2.5649256,-0.1429208 -2.5556584,-0.1345872 -2.5476302,-0.1249148 -2.5407942,-0.1143109 -2.5350275,-0.1031288 -2.3668377,0.2671496 A0.192284,0.192284 337.8521393 0,1 -2.3644647,0.2732775 A0.0400396,0.0400396 338.1795791 0,1 -2.3616224,0.2867066z"
       transform="matrix(1,0,0,-1,6.1653653,1.9616448)"
       stroke="rgb(100,100,100)"
       stroke-width="0.0010cm"
       stroke-linecap="round"
       stroke-linejoin="round"
       fill="none"
       id="path19"
       style="stroke-width:0.03;stroke-dasharray:none;fill:#0732a5;fill-opacity:1;stroke:none" /><path
       d="M-3.9679009,0.1328585 L-4.0995844,0.1328585 -4.0135338,0.3245167 -3.9509515,0.3245167 -3.9509515,0.3245167 -3.9414552,0.3238538 -3.9329429,0.3219414 -3.9254151,0.3188704 -3.9187022,0.3145406 -3.913024,0.3089085 -3.9087749,0.302188 -3.9061721,0.2946416 -3.9053186,0.2867066 A0.051513,0.051513 359.7759349 0,0 -3.9083173,0.2695877 A0.0595705,0.0595705 340.7297062 0,0 -3.90923,0.2671496 L-3.9679009,0.1328585z"
       transform="matrix(1,0,0,-1,6.1653653,1.9616448)"
       stroke="rgb(100,100,100)"
       stroke-width="0.0010cm"
       stroke-linecap="round"
       stroke-linejoin="round"
       fill="none"
       id="path22"
       style="stroke-width:0.03;stroke-dasharray:none;fill:#0732a5;fill-opacity:1;stroke:none" /></g></svg>
